<svg xmlns="http://www.w3.org/2000/svg" version="1.1" xmlns:xlink="http://www.w3.org/1999/xlink"
    xmlns:svgjs="http://svgjs.com/svgjs" width="1442" height="250" preserveAspectRatio="none" viewBox="0 0 1442 250">
    <g mask="url(&quot;#SvgjsMask1031&quot;)" fill="none">
        <path
            d="M1466.033333333333 250L0 250 L0 153.05Q36.54 69.42, 120.16666666666667 105.96Q167.57 33.2, 240.33333333333334 80.61Q325.28 45.39, 360.5 130.34Q390 87.73, 432.6 117.23Q483.67 96.19, 504.70000000000005 147.26Q536.6 58.99, 624.8666666666667 90.89Q696.05 41.91, 745.0333333333333 113.09Q817.82 65.71, 865.1999999999999 138.49Q878.47 79.65, 937.3 92.92Q984.53 68.05, 1009.4 115.28Q1076.91 62.62, 1129.5666666666666 130.13Q1139.94 68.4, 1201.6666666666665 78.77Q1273.3 30.24, 1321.8333333333333 101.87Q1369.58 77.52, 1393.9333333333332 125.26Q1406.81 66.04, 1466.033333333333 78.92z"
            fill="rgba(12, 122, 223, 1)"></path>
        <path
            d="M1490.0666666666666 250L0 250 L0 145.55Q66.76 140.21, 72.10000000000001 206.97Q107.32 122.03, 192.26666666666668 157.25Q218.52 111.41, 264.3666666666667 137.66Q317.13 118.32, 336.4666666666667 171.09Q388.42 150.94, 408.5666666666667 202.9Q463.18 137.34, 528.7333333333333 191.95Q581.68 124.73, 648.9 177.68Q672.08 128.76, 721 151.94Q776.95 135.8, 793.1 191.75Q844.05 122.54, 913.2666666666667 173.49Q993.82 133.87, 1033.4333333333334 214.42Q1059.52 168.41, 1105.5333333333333 194.49Q1111.76 128.62, 1177.6333333333332 134.85Q1243.56 80.61, 1297.8 146.53Q1371.09 99.66, 1417.9666666666667 172.95Q1475 157.88, 1490.0666666666666 214.91z"
            fill="rgba(70, 152, 255, 1)"></path>
        <path
            d="M1514.1000000000001 250L0 250 L0 209.91Q76.33 166.07, 120.16666666666667 242.4Q193.59 195.65, 240.33333333333334 269.07Q251.93 208.57, 312.43333333333334 220.16Q343.19 178.81, 384.53333333333336 209.57Q465.41 170.28, 504.70000000000005 251.15Q532.98 207.33, 576.8000000000001 235.6Q619.14 157.78, 696.9666666666667 200.12Q788.56 171.55, 817.1333333333333 263.15Q865.85 191.7, 937.3 240.41Q958.54 189.56, 1009.4 210.8Q1050.63 179.93, 1081.5 221.17Q1122.9 190.47, 1153.6 231.87Q1227.57 185.67, 1273.7666666666667 259.64Q1325.42 191.13, 1393.9333333333334 242.79Q1442.08 170.77, 1514.1000000000001 218.91z"
            fill="rgba(216, 222, 251, 1)"></path>
    </g>
    <defs>
        <mask id="SvgjsMask1031">
            <rect width="1442" height="250" fill="#ffffff"></rect>
        </mask>
    </defs>
</svg>